<svg width="180" height="40" viewBox="0 0 180 40" fill="none" xmlns="http://www.w3.org/2000/svg">
<g style="mix-blend-mode:multiply">
<path d="M4.42999 10.8381C5.77296 9.1692 7.36938 7.69995 9.14756 6.47877C10.9257 5.25759 12.8897 4.28347 14.9759 3.61389C16.1967 3.22263 17.4619 2.93725 18.7513 2.77187L18.2243 0.741943L26.8738 5.0186L17.6689 8.96349L18.3858 6.98197C17.5992 7.05558 16.8136 7.18567 16.0361 7.3692C14.2852 7.78164 12.5777 8.46332 10.9924 9.37794C9.40707 10.2926 7.94292 11.4391 6.6777 12.7813C5.41248 14.1225 4.34618 15.6603 3.5616 17.3383C2.77601 19.0163 2.26911 20.8445 2.04797 22.7212C1.82583 24.5978 1.8854 26.5239 2.21761 28.4116C2.54982 30.2994 3.15466 32.1518 4.02507 33.8833C4.89447 35.6137 6.03348 37.2221 7.41785 38.6076C7.53296 38.7236 7.54306 38.9122 7.43401 39.0392C7.31991 39.1724 7.11896 39.1885 6.98568 39.0735C5.44277 37.7545 4.11999 36.1683 3.05975 34.4167C1.9995 32.6641 1.19877 30.7461 0.682783 28.7454C0.166798 26.7437 -0.0664553 24.6573 0.0163447 22.5639C0.0991446 20.4724 0.500017 18.3719 1.25027 16.3753C1.9995 14.3776 3.08802 12.506 4.431 10.8381H4.42999Z" fill="#1E9BE1"/>
<path d="M7.73633 25.7545C7.73633 17.7377 13.2637 12.2509 21.0611 12.2509C27.6083 12.2509 32.9378 16.6869 34.1879 22.9945H26.6864C25.8968 20.9242 23.8571 19.4792 21.3236 19.4792C17.738 19.4792 15.4014 22.1404 15.4014 25.7545C15.4014 29.3686 17.8692 32.0298 21.4226 32.0298C23.6268 32.0298 25.3051 31.1424 26.1603 29.7629H20.3037V25.1303H34.3191C34.3191 33.1804 29.5157 39.2581 21.4226 39.2581C13.3294 39.2581 7.73633 33.6725 7.73633 25.7545ZM38.5965 12.6119H52.0525C57.0861 12.6119 60.6061 16.1605 60.6061 21.2197C60.6061 24.9327 58.632 27.9226 55.6381 29.2698L61.7249 38.8971H53.3359L47.9074 30.0917H46.0979V38.8971H38.5965V12.6119ZM51.4274 23.3555C52.4806 23.3555 53.2036 22.5336 53.2036 21.3508C53.2036 20.1679 52.4796 19.3461 51.4274 19.3461H46.0979V23.3545H51.4274V23.3555ZM72.9766 12.6119H80.4448L90.4787 38.8971H82.846L81.398 35.0198H72.0547L70.6067 38.8971H62.9407L72.9756 12.6119H72.9766ZM79.228 29.0066L76.7279 22.2715L74.2277 29.0066H79.228ZM87.1899 12.6119H94.856L100.975 29.171L107.094 12.6119H114.727L104.692 38.8971H97.2239L87.1899 12.6119ZM118.018 12.6119H125.519V38.8971H118.018V12.6119ZM136.605 19.4459H129.137V12.6119H151.476V19.4459H144.107V38.8971H136.605V19.4459ZM162.63 30.3538L152.793 12.6119H160.952L166.413 22.5669L171.842 12.6119H180.001L170.13 30.3538V38.8961H162.629V30.3538H162.63Z" fill="#1E9BE1"/>
</g>
</svg>
